<svg width="1280" height="640" viewBox="0 0 1280 640" fill="none" xmlns="http://www.w3.org/2000/svg">
<rect width="1280" height="640" fill="#002237"/>
<path d="M230.79 384C229.368 384 228.657 383.289 228.657 381.867V272.384C228.657 270.962 229.368 270.251 230.79 270.251H290.267C291.69 270.251 292.401 270.962 292.401 272.384V290.816C292.401 292.238 291.69 292.949 290.267 292.949H257.073V317.184H287.366C288.788 317.184 289.499 317.895 289.499 319.317V334.933C289.499 336.356 288.788 337.067 287.366 337.067H257.073V361.216H290.267C291.69 361.216 292.401 361.927 292.401 363.349V381.867C292.401 383.289 291.69 384 290.267 384H230.79ZM314.957 384C313.534 384 312.823 383.289 312.823 381.867V272.384C312.823 270.962 313.534 270.251 314.957 270.251H363.426C364.791 270.251 365.929 270.706 366.839 271.616L383.906 288.683C384.873 289.65 385.357 290.788 385.357 292.096V381.867C385.357 383.289 384.646 384 383.223 384H359.074C357.652 384 356.941 383.289 356.941 381.867V292.949H341.239V381.867C341.239 383.289 340.528 384 339.106 384H314.957ZM405.397 384C403.974 384 403.263 383.289 403.263 381.867V365.824C403.263 365.084 403.292 364.487 403.349 364.032C403.462 363.577 403.804 363.207 404.373 362.923L426.73 352.683V337.493L404.714 323.84C403.747 323.271 403.263 322.418 403.263 321.28V289.963C403.263 289.052 403.32 288.398 403.434 288C403.548 287.545 403.974 287.061 404.714 286.549L427.157 271.36C427.726 271.019 428.238 270.763 428.693 270.592C429.205 270.364 429.83 270.251 430.57 270.251H453.61C455.032 270.251 455.743 270.962 455.743 272.384V286.891C455.743 288.142 455.317 288.996 454.463 289.451L432.106 298.667V314.453L454.463 327.253C455.317 327.652 455.743 328.562 455.743 329.984V367.104C455.743 367.559 455.658 368.043 455.487 368.555C455.374 369.067 455.089 369.436 454.634 369.664L427.839 382.976C427.498 383.147 427.071 383.374 426.559 383.659C426.104 383.886 425.649 384 425.194 384H405.397ZM475.79 384C474.368 384 473.657 383.289 473.657 381.867V272.384C473.657 270.962 474.368 270.251 475.79 270.251H499.939C501.362 270.251 502.073 270.962 502.073 272.384V381.867C502.073 383.289 501.362 384 499.939 384H475.79ZM524.623 384C523.201 384 522.49 383.289 522.49 381.867V272.384C522.49 270.962 523.201 270.251 524.623 270.251H573.093C574.458 270.251 575.596 270.706 576.506 271.616L593.573 288.683C594.54 289.65 595.023 290.788 595.023 292.096V381.867C595.023 383.289 594.312 384 592.89 384H568.741C567.318 384 566.607 383.289 566.607 381.867V292.949H550.906V381.867C550.906 383.289 550.195 384 548.773 384H524.623ZM617.026 384C615.604 384 614.893 383.289 614.893 381.867V302.763C614.893 302.023 615.177 301.17 615.746 300.203L635.97 271.531C636.596 270.677 637.506 270.251 638.701 270.251H666.946C668.198 270.251 669.108 270.677 669.677 271.531L689.986 300.203C690.555 300.999 690.839 301.852 690.839 302.763V381.867C690.839 383.289 690.128 384 688.706 384H664.557C663.134 384 662.423 383.289 662.423 381.867V345.6H643.394V381.867C643.394 383.289 642.683 384 641.261 384H617.026ZM652.866 327.253C658.1 327.253 661.627 326.116 663.447 323.84C665.325 321.508 666.263 317.099 666.263 310.613C666.263 304.128 665.325 299.748 663.447 297.472C661.627 295.14 658.1 293.973 652.866 293.973C647.689 293.973 644.162 295.14 642.285 297.472C640.464 299.748 639.554 304.128 639.554 310.613C639.554 317.099 640.464 321.508 642.285 323.84C644.162 326.116 647.689 327.253 652.866 327.253Z" fill="white"/>
<path d="M833.92 392C832.32 392 831.52 391.2 831.52 389.6V285.44C831.52 283.968 832.064 282.688 833.152 281.6L849.088 265.568C850.176 264.544 851.456 264.032 852.928 264.032H874.912C876.384 264.032 877.664 264.544 878.752 265.568L894.88 281.792H899.392L915.52 265.568C916.608 264.544 917.888 264.032 919.36 264.032H941.248C942.784 264.032 944.064 264.544 945.088 265.568L961.12 281.6C962.208 282.688 962.752 283.968 962.752 285.44V389.6C962.752 391.2 961.952 392 960.352 392H933.088C931.488 392 930.688 391.2 930.688 389.6V289.568H913.12V389.6C913.12 391.2 912.32 392 910.72 392H883.552C881.952 392 881.152 391.2 881.152 389.6V289.568H863.488V389.6C863.488 391.2 862.688 392 861.088 392H833.92ZM988.233 392C986.633 392 985.833 391.2 985.833 389.6V266.432C985.833 264.832 986.633 264.032 988.233 264.032H1055.14C1056.74 264.032 1057.54 264.832 1057.54 266.432V287.168C1057.54 288.768 1056.74 289.568 1055.14 289.568H1017.8V316.832H1051.88C1053.48 316.832 1054.28 317.632 1054.28 319.232V336.8C1054.28 338.4 1053.48 339.2 1051.88 339.2H1017.8V366.368H1055.14C1056.74 366.368 1057.54 367.168 1057.54 368.768V389.6C1057.54 391.2 1056.74 392 1055.14 392H988.233Z" fill="white"/>
<path d="M758.189 323.311V335.378H798.411L802.433 339.4V355.489L798.411 359.511H758.189V371.578H750.144L724 351.467V343.422L750.144 323.311H758.189Z" fill="white"/>
<path d="M768.244 267V279.067H728.022L724 283.089V299.178L728.022 303.2H768.244V315.267H776.289L802.433 295.156V287.111L776.289 267H768.244Z" fill="white"/>
</svg>
