<svg width="128" height="128" viewBox="0 0 128 128" fill="none" xmlns="http://www.w3.org/2000/svg">
<rect width="128" height="128" rx="64" fill="#002237"/>
<path d="M22.9284 77C22.6284 77 22.4784 76.85 22.4784 76.55V53.456C22.4784 53.156 22.6284 53.006 22.9284 53.006H35.4744C35.7744 53.006 35.9244 53.156 35.9244 53.456V57.344C35.9244 57.644 35.7744 57.794 35.4744 57.794H28.4724V62.906H34.8624C35.1624 62.906 35.3124 63.056 35.3124 63.356V66.65C35.3124 66.95 35.1624 67.1 34.8624 67.1H28.4724V72.194H35.4744C35.7744 72.194 35.9244 72.344 35.9244 72.644V76.55C35.9244 76.85 35.7744 77 35.4744 77H22.9284ZM63.6041 77C63.3041 77 63.1541 76.85 63.1541 76.55V57.02C63.1541 56.744 63.2561 56.504 63.4601 56.3L66.4481 53.294C66.6521 53.102 66.8921 53.006 67.1681 53.006H71.2901C71.5661 53.006 71.8061 53.102 72.0101 53.294L75.0341 56.336H75.8801L78.9041 53.294C79.1081 53.102 79.3481 53.006 79.6241 53.006H83.7281C84.0161 53.006 84.2561 53.102 84.4481 53.294L87.4541 56.3C87.6581 56.504 87.7601 56.744 87.7601 57.02V76.55C87.7601 76.85 87.6101 77 87.3101 77H82.1981C81.8981 77 81.7481 76.85 81.7481 76.55V57.794H78.4541V76.55C78.4541 76.85 78.3041 77 78.0041 77H72.9101C72.6101 77 72.4601 76.85 72.4601 76.55V57.794H69.1481V76.55C69.1481 76.85 68.9981 77 68.6981 77H63.6041ZM92.5377 77C92.2377 77 92.0877 76.85 92.0877 76.55V53.456C92.0877 53.156 92.2377 53.006 92.5377 53.006H105.084C105.384 53.006 105.534 53.156 105.534 53.456V57.344C105.534 57.644 105.384 57.794 105.084 57.794H98.0817V62.906H104.472C104.772 62.906 104.922 63.056 104.922 63.356V66.65C104.922 66.95 104.772 67.1 104.472 67.1H98.0817V72.194H105.084C105.384 72.194 105.534 72.344 105.534 72.644V76.55C105.534 76.85 105.384 77 105.084 77H92.5377Z" fill="white"/>
<path d="M47.9636 66.7636V69.0546H55.6L56.3636 69.8182V72.8727L55.6 73.6364H47.9636V75.9273H46.4364L41.4727 72.1091V70.5818L46.4364 66.7636H47.9636Z" fill="white"/>
<path d="M49.8727 56.0727V58.3636H42.2364L41.4727 59.1273V62.1818L42.2364 62.9455H49.8727V65.2364H51.4L56.3636 61.4182V59.8909L51.4 56.0727H49.8727Z" fill="white"/>
</svg>
