<svg width="30" height="30" viewBox="0 0 30 30" fill="none" xmlns="http://www.w3.org/2000/svg">
<rect width="30" height="30" rx="2" fill="#002237"/>
<path d="M11.5184 22C11.3517 22 11.2684 21.9167 11.2684 21.75V8.92C11.2684 8.75333 11.3517 8.67 11.5184 8.67H18.4884C18.655 8.67 18.7384 8.75333 18.7384 8.92V11.08C18.7384 11.2467 18.655 11.33 18.4884 11.33H14.5984V14.17H18.1484C18.315 14.17 18.3984 14.2533 18.3984 14.42V16.25C18.3984 16.4167 18.315 16.5 18.1484 16.5H14.5984V19.33H18.4884C18.655 19.33 18.7384 19.4133 18.7384 19.58V21.75C18.7384 21.9167 18.655 22 18.4884 22H11.5184Z" fill="white"/>
</svg>
