<svg width="128" height="128" viewBox="0 0 128 128" fill="none" xmlns="http://www.w3.org/2000/svg">
<rect width="128" height="128" rx="30" fill="#002237"/>
<path d="M13.0581 82C12.6581 82 12.4581 81.8 12.4581 81.4V50.608C12.4581 50.208 12.6581 50.008 13.0581 50.008H29.7861C30.1861 50.008 30.3861 50.208 30.3861 50.608V55.792C30.3861 56.192 30.1861 56.392 29.7861 56.392H20.4501V63.208H28.9701C29.3701 63.208 29.5701 63.408 29.5701 63.808V68.2C29.5701 68.6 29.3701 68.8 28.9701 68.8H20.4501V75.592H29.7861C30.1861 75.592 30.3861 75.792 30.3861 76.192V81.4C30.3861 81.8 30.1861 82 29.7861 82H13.0581ZM59.6519 82C59.2519 82 59.0519 81.8 59.0519 81.4V55.36C59.0519 54.992 59.1879 54.672 59.4599 54.4L63.4439 50.392C63.7159 50.136 64.0359 50.008 64.4039 50.008H69.8999C70.2679 50.008 70.5879 50.136 70.8599 50.392L74.8919 54.448H76.0199L80.0519 50.392C80.3239 50.136 80.6439 50.008 81.0119 50.008H86.4839C86.8679 50.008 87.1879 50.136 87.4439 50.392L91.4519 54.4C91.7239 54.672 91.8599 54.992 91.8599 55.36V81.4C91.8599 81.8 91.6599 82 91.2599 82H84.4439C84.0439 82 83.8439 81.8 83.8439 81.4V56.392H79.4519V81.4C79.4519 81.8 79.2519 82 78.8519 82H72.0599C71.6599 82 71.4599 81.8 71.4599 81.4V56.392H67.0439V81.4C67.0439 81.8 66.8439 82 66.4439 82H59.6519ZM98.23 82C97.83 82 97.63 81.8 97.63 81.4V50.608C97.63 50.208 97.83 50.008 98.23 50.008H114.958C115.358 50.008 115.558 50.208 115.558 50.608V55.792C115.558 56.192 115.358 56.392 114.958 56.392H105.622V63.208H114.142C114.542 63.208 114.742 63.408 114.742 63.808V68.2C114.742 68.6 114.542 68.8 114.142 68.8H105.622V75.592H114.958C115.358 75.592 115.558 75.792 115.558 76.192V81.4C115.558 81.8 115.358 82 114.958 82H98.23Z" fill="white"/>
<path d="M43 68V71H53L54 72V76L53 77H43V80H41L34.5 75V73L41 68H43Z" fill="white"/>
<path d="M45.5 54V57H35.5L34.5 58V62L35.5 63H45.5V66H47.5L54 61V59L47.5 54H45.5Z" fill="white"/>
</svg>
