<svg width="255" height="66" viewBox="0 0 255 66" fill="none" xmlns="http://www.w3.org/2000/svg">
<rect width="255" height="66" fill="#002237"/>
<path d="M19.1753 51C18.7753 51 18.5753 50.8 18.5753 50.4V19.608C18.5753 19.208 18.7753 19.008 19.1753 19.008H35.9033C36.3033 19.008 36.5033 19.208 36.5033 19.608V24.792C36.5033 25.192 36.3033 25.392 35.9033 25.392H26.5673V32.208H35.0873C35.4873 32.208 35.6873 32.408 35.6873 32.808V37.2C35.6873 37.6 35.4873 37.8 35.0873 37.8H26.5673V44.592H35.9033C36.3033 44.592 36.5033 44.792 36.5033 45.192V50.4C36.5033 50.8 36.3033 51 35.9033 51H19.1753ZM42.8472 51C42.4472 51 42.2472 50.8 42.2472 50.4V19.608C42.2472 19.208 42.4472 19.008 42.8472 19.008H56.4792C56.8632 19.008 57.1832 19.136 57.4392 19.392L62.2392 24.192C62.5112 24.464 62.6472 24.784 62.6472 25.152V50.4C62.6472 50.8 62.4472 51 62.0472 51H55.2552C54.8552 51 54.6552 50.8 54.6552 50.4V25.392H50.2392V50.4C50.2392 50.8 50.0392 51 49.6392 51H42.8472ZM68.2834 51C67.8834 51 67.6834 50.8 67.6834 50.4V45.888C67.6834 45.68 67.6914 45.512 67.7074 45.384C67.7394 45.256 67.8354 45.152 67.9954 45.072L74.2834 42.192V37.92L68.0914 34.08C67.8194 33.92 67.6834 33.68 67.6834 33.36V24.552C67.6834 24.296 67.6994 24.112 67.7314 24C67.7634 23.872 67.8834 23.736 68.0914 23.592L74.4034 19.32C74.5634 19.224 74.7074 19.152 74.8354 19.104C74.9794 19.04 75.1554 19.008 75.3634 19.008H81.8434C82.2434 19.008 82.4434 19.208 82.4434 19.608V23.688C82.4434 24.04 82.3234 24.28 82.0834 24.408L75.7954 27V31.44L82.0834 35.04C82.3234 35.152 82.4434 35.408 82.4434 35.808V46.248C82.4434 46.376 82.4194 46.512 82.3714 46.656C82.3394 46.8 82.2594 46.904 82.1314 46.968L74.5954 50.712C74.4994 50.76 74.3794 50.824 74.2354 50.904C74.1074 50.968 73.9794 51 73.8514 51H68.2834ZM88.0816 51C87.6816 51 87.4816 50.8 87.4816 50.4V19.608C87.4816 19.208 87.6816 19.008 88.0816 19.008H94.8736C95.2736 19.008 95.4736 19.208 95.4736 19.608V50.4C95.4736 50.8 95.2736 51 94.8736 51H88.0816ZM101.816 51C101.416 51 101.216 50.8 101.216 50.4V19.608C101.216 19.208 101.416 19.008 101.816 19.008H115.448C115.832 19.008 116.152 19.136 116.408 19.392L121.208 24.192C121.48 24.464 121.616 24.784 121.616 25.152V50.4C121.616 50.8 121.416 51 121.016 51H114.224C113.824 51 113.624 50.8 113.624 50.4V25.392H109.208V50.4C109.208 50.8 109.008 51 108.608 51H101.816ZM127.804 51C127.404 51 127.204 50.8 127.204 50.4V28.152C127.204 27.944 127.284 27.704 127.444 27.432L133.132 19.368C133.308 19.128 133.564 19.008 133.9 19.008H141.844C142.196 19.008 142.452 19.128 142.612 19.368L148.324 27.432C148.484 27.656 148.564 27.896 148.564 28.152V50.4C148.564 50.8 148.364 51 147.964 51H141.172C140.772 51 140.572 50.8 140.572 50.4V40.2H135.22V50.4C135.22 50.8 135.02 51 134.62 51H127.804ZM137.884 35.04C139.356 35.04 140.348 34.72 140.86 34.08C141.388 33.424 141.652 32.184 141.652 30.36C141.652 28.536 141.388 27.304 140.86 26.664C140.348 26.008 139.356 25.68 137.884 25.68C136.428 25.68 135.436 26.008 134.908 26.664C134.396 27.304 134.14 28.536 134.14 30.36C134.14 32.184 134.396 33.424 134.908 34.08C135.436 34.72 136.428 35.04 137.884 35.04Z" fill="white"/>
<path d="M182.355 50C181.955 50 181.755 49.8 181.755 49.4V23.36C181.755 22.992 181.891 22.672 182.163 22.4L186.147 18.392C186.419 18.136 186.739 18.008 187.107 18.008H192.603C192.971 18.008 193.291 18.136 193.563 18.392L197.595 22.448H198.723L202.755 18.392C203.027 18.136 203.347 18.008 203.715 18.008H209.187C209.571 18.008 209.891 18.136 210.147 18.392L214.155 22.4C214.427 22.672 214.563 22.992 214.563 23.36V49.4C214.563 49.8 214.363 50 213.963 50H207.147C206.747 50 206.547 49.8 206.547 49.4V24.392H202.155V49.4C202.155 49.8 201.955 50 201.555 50H194.763C194.363 50 194.163 49.8 194.163 49.4V24.392H189.747V49.4C189.747 49.8 189.547 50 189.147 50H182.355ZM220.933 50C220.533 50 220.333 49.8 220.333 49.4V18.608C220.333 18.208 220.533 18.008 220.933 18.008H237.661C238.061 18.008 238.261 18.208 238.261 18.608V23.792C238.261 24.192 238.061 24.392 237.661 24.392H228.325V31.208H236.845C237.245 31.208 237.445 31.408 237.445 31.808V36.2C237.445 36.6 237.245 36.8 236.845 36.8H228.325V43.592H237.661C238.061 43.592 238.261 43.792 238.261 44.192V49.4C238.261 49.8 238.061 50 237.661 50H220.933Z" fill="white"/>
<path d="M164.5 37V40H174.5L175.5 41V45L174.5 46H164.5V49H162.5L156 44V42L162.5 37H164.5Z" fill="white"/>
<path d="M167 23V26H157L156 27V31L157 32H167V35H169L175.5 30V28L169 23H167Z" fill="white"/>
</svg>
